<svg xmlns="http://www.w3.org/2000/svg" xmlns:xlink="http://www.w3.org/1999/xlink" version="1.1" x="0px" y="0px" viewBox="0 0 60 75" style="enable-background:new 0 0 60 60;" xml:space="preserve"><g><g><path d="M52.6,13l-30,30L7.4,25.8c-0.7-0.7-1.9-0.9-2.6-0.2s-0.9,1.9-0.2,2.6l16.5,18.7l0,0l0,0c0.2,0.2,0.2,0.2,0.4,0.2l0.2,0.2    c0.2,0.2,0.6,0.2,0.7,0.2c0.2,0,0.4,0,0.7-0.2c0,0,0.2,0,0.2-0.2c0.2,0,0.2-0.2,0.4-0.2l0,0l0,0l31.5-31.5c0.7-0.7,0.7-1.9,0-2.6    C54.5,12.1,53.4,12.3,52.6,13z"/></g></g><text x="0" y="75" fill="#000000" font-size="5px" font-weight="bold" font-family="'Helvetica Neue', Helvetica, Arial-Unicode, Arial, Sans-serif">Created by Shastry</text><text x="0" y="80" fill="#000000" font-size="5px" font-weight="bold" font-family="'Helvetica Neue', Helvetica, Arial-Unicode, Arial, Sans-serif">from the Noun Project</text></svg>