<svg xmlns="http://www.w3.org/2000/svg" data-name="Layer 1" viewBox="0 0 100 125" x="0px" y="0px"><title>newset</title><path d="M50,44.12a12.5,12.5,0,1,0-12.5-12.5A12.51,12.51,0,0,0,50,44.12Zm0-23a10.5,10.5,0,1,1-10.5,10.5A10.51,10.51,0,0,1,50,21.12Z"/><path d="M58,48.87H42a16,16,0,0,0-16,16v12a4,4,0,0,0,4,4H70a4,4,0,0,0,4-4v-12A16,16,0,0,0,58,48.87Zm14,28a2,2,0,0,1-2,2H30a2,2,0,0,1-2-2v-12a14,14,0,0,1,14-14H58a14,14,0,0,1,14,14Z"/><text x="0" y="115" fill="#000000" font-size="5px" font-weight="bold" font-family="'Helvetica Neue', Helvetica, Arial-Unicode, Arial, Sans-serif">Created by Shastry</text><text x="0" y="120" fill="#000000" font-size="5px" font-weight="bold" font-family="'Helvetica Neue', Helvetica, Arial-Unicode, Arial, Sans-serif">from the Noun Project</text></svg>